<?xml version="1.0" standalone="no"?>
<!DOCTYPE svg PUBLIC "-//W3C//DTD SVG 20010904//EN"
 "http://www.w3.org/TR/2001/REC-SVG-20010904/DTD/svg10.dtd">
<svg version="1.0" xmlns="http://www.w3.org/2000/svg"
 width="700.000000pt" height="700.000000pt" viewBox="0 0 700.000000 700.000000"
 preserveAspectRatio="xMidYMid meet">
<metadata>
Created by potrace 1.14, written by Peter Selinger 2001-2017
</metadata>
<g transform="translate(0.000000,700.000000) scale(0.100000,-0.100000)"
fill="#000000" stroke="none">
<path d="M0 5156 l0 -271 63 -1 c427 -6 897 -198 1211 -494 49 -46 101 -99
161 -164 6 -6 24 -29 40 -51 17 -22 33 -42 36 -45 5 -4 254 -357 299 -423 101
-150 389 -463 525 -570 395 -310 915 -453 1405 -387 121 16 126 17 234 45 307
80 589 236 820 454 137 130 345 379 474 566 228 333 266 381 385 503 224 230
494 393 801 486 64 20 131 38 149 41 17 3 57 10 87 15 71 12 138 20 225 25 39
2 73 4 78 4 4 1 6 121 5 269 l-3 267 -45 -1 c-58 -1 -229 -13 -255 -18 -11 -2
-42 -7 -70 -10 -27 -4 -68 -11 -90 -16 -22 -5 -51 -11 -65 -13 -108 -20 -328
-93 -465 -155 -335 -152 -602 -356 -870 -662 -29 -33 -198 -263 -276 -375 -18
-27 -39 -56 -46 -65 -6 -8 -39 -52 -72 -97 -70 -95 -80 -107 -189 -229 -188
-211 -335 -323 -532 -407 -346 -147 -763 -136 -1101 28 -81 39 -86 42 -174 99
-74 48 -303 277 -406 406 -42 52 -147 194 -234 315 -195 274 -276 374 -401
497 -334 328 -690 525 -1149 638 -66 16 -147 32 -180 36 -33 3 -62 8 -65 9 -5
3 -107 11 -257 19 l-53 3 0 -271z"/>
<path d="M0 4079 l0 -269 28 -1 c15 -1 31 -1 36 0 24 5 180 -35 244 -61 81
-33 180 -96 243 -155 52 -48 155 -178 244 -308 60 -86 183 -259 208 -290 4 -5
37 -48 73 -95 293 -378 587 -640 957 -854 376 -217 772 -338 1247 -381 71 -7
370 -7 435 0 130 12 163 16 200 21 72 10 100 15 115 19 8 2 33 6 55 10 22 3
67 13 100 21 33 9 67 17 75 19 43 8 208 62 305 100 639 247 1136 678 1625
1410 148 222 278 362 403 433 82 47 192 88 260 97 23 3 51 8 62 10 11 2 35 4
53 4 l32 1 0 271 0 271 -80 -6 c-329 -25 -614 -149 -847 -370 -130 -123 -335
-375 -484 -596 -24 -36 -47 -69 -51 -75 -4 -5 -42 -57 -84 -115 -192 -263
-410 -465 -683 -634 -439 -271 -942 -392 -1471 -352 -52 4 -102 9 -110 11 -8
2 -36 6 -61 9 -211 27 -502 121 -729 237 -364 185 -709 492 -914 814 -11 16
-23 34 -28 40 -5 5 -52 72 -106 147 -334 472 -567 683 -883 802 -74 28 -165
53 -224 61 -22 3 -52 8 -67 11 -15 3 -61 7 -103 9 l-75 4 0 -270z"/>
<path d="M0 3003 l0 -270 270 0 c149 0 270 3 270 7 0 10 -115 178 -168 245 -4
6 -19 26 -32 45 -97 138 -207 225 -300 237 l-40 6 0 -270z"/>
<path d="M6905 3254 c-52 -18 -129 -83 -192 -159 -43 -52 -239 -321 -256 -351
-4 -7 74 -11 268 -11 l275 0 0 269 0 268 -27 -1 c-16 0 -46 -7 -68 -15z"/>
<path d="M2 1926 l3 -270 803 0 c486 0 803 4 803 9 1 5 -13 18 -31 28 -103 57
-399 297 -543 439 l-62 62 -488 1 -487 0 2 -269z"/>
<path d="M5960 2130 c-170 -164 -317 -286 -479 -395 -61 -41 -108 -75 -104
-76 5 0 371 -2 816 -2 l807 -2 -2 270 -3 270 -484 0 -484 0 -67 -65z"/>
</g>
</svg>
