<svg  viewBox="0 0 23 22" fill="none" xmlns="http://www.w3.org/2000/svg">
<path fill-rule="evenodd" clip-rule="evenodd" d="M14.75 7.29497C14.34 7.29497 14 6.95497 14 6.54497V4.71497L6.02 6.84497V14.005C6.02 15.365 5.1 16.565 3.78 16.915L3.3 17.045C3.07 17.105 2.85 17.135 2.62 17.135C2.05 17.135 1.49 16.945 1.02 16.585C0.369997 16.085 0 15.325 0 14.505C0 13.315 0.809999 12.265 1.96 11.965L4.52 11.285V3.27497C4.52 2.94497 4.75 2.64497 5.08 2.55497L14.56 0.0249671C14.79 -0.0350329 15.02 0.0149669 15.21 0.154967C15.39 0.294967 15.5 0.514967 15.5 0.744967V6.54497C15.5 6.95497 15.16 7.29497 14.75 7.29497ZM3.39 15.465C4.06 15.295 4.52 14.695 4.52 14.005L4.51 13.995V12.825L2.33 13.405C1.84 13.535 1.49 13.985 1.49 14.495C1.49 14.855 1.65 15.175 1.93 15.395C2.21 15.615 2.57 15.685 2.91 15.595L3.39 15.465ZM6.02 3.83497V5.28497L14 3.15497V1.70497L6.02 3.83497Z" fill="currentColor"/>
<path fill-rule="evenodd" clip-rule="evenodd" d="M21.69 7.10497C21.95 7.36497 22.15 7.66497 22.29 7.99497H22.28C22.42 8.32497 22.49 8.68497 22.49 9.04497C22.49 9.40497 22.42 9.76497 22.28 10.095C22.15 10.425 21.95 10.725 21.69 10.985L12.16 20.515C12.07 20.605 11.96 20.675 11.83 20.705L7.94999 21.765C7.87999 21.795 7.81999 21.795 7.74999 21.795C7.54999 21.795 7.35999 21.715 7.21999 21.575C7.02999 21.385 6.95999 21.105 7.02999 20.845L8.08999 16.965C8.11999 16.845 8.18999 16.725 8.27999 16.635L17.81 7.10497C18.06 6.84497 18.36 6.64497 18.7 6.50497C19.37 6.22497 20.13 6.22497 20.8 6.50497C21.13 6.64497 21.43 6.84497 21.69 7.10497ZM20.63 9.92497C20.75 9.81497 20.84 9.67497 20.9 9.52497V9.53497C20.97 9.37497 21 9.22497 21 9.05497C21 8.88497 20.96 8.72497 20.9 8.57497C20.84 8.41497 20.75 8.28497 20.63 8.16497C20.52 8.04497 20.38 7.95497 20.23 7.89497C19.92 7.76497 19.58 7.76497 19.27 7.89497C19.12 7.95497 18.99 8.04497 18.87 8.16497L9.47999 17.555L8.81999 19.975L11.24 19.315L20.63 9.92497Z" fill="currentColor"/>
</svg>
