<svg viewBox="0 0 10 7" fill="none" xmlns="http://www.w3.org/2000/svg">
  <path fill-rule="evenodd" clip-rule="evenodd" d="M0.292433 0.30492C0.479735 0.117675 0.733736 0.0124867 0.998581 0.0124867C1.26342 0.0124867 1.51743 0.117675 1.70473 0.30492L4.99376 3.59395L8.28278 0.30492C8.37492 0.209525 8.48513 0.133435 8.60699 0.0810889C8.72885 0.0287432 8.85991 0.00119014 8.99253 3.77115e-05C9.12515 -0.00111471 9.25667 0.0241563 9.37941 0.0743765C9.50216 0.124597 9.61368 0.19876 9.70746 0.29254C9.80124 0.386319 9.8754 0.497837 9.92562 0.620585C9.97584 0.743333 10.0011 0.874854 9.99996 1.00747C9.99881 1.14009 9.97126 1.27115 9.91891 1.39301C9.86656 1.51487 9.79047 1.62508 9.69508 1.71721L5.6999 5.71239C5.5126 5.89963 5.2586 6.00482 4.99376 6.00482C4.72891 6.00482 4.47491 5.89963 4.28761 5.71239L0.292433 1.71721C0.105189 1.52991 0 1.27591 0 1.01107C0 0.746223 0.105189 0.492222 0.292433 0.30492Z" fill="currentColor"/>
</svg>
