<svg viewBox="0 0 21 24" fill="none" xmlns="http://www.w3.org/2000/svg">
<path fill-rule="evenodd" clip-rule="evenodd" d="M8.17 3.75C8.17 3.34 8.51 3 8.92 3V3.02C9.33 3.02 9.67 3.36 9.67 3.77V11.34C9.67 12.57 8.83 13.66 7.64 13.99L6.89999 14.19C6.69999 14.24 6.48999 14.27 6.28999 14.27C5.78999 14.27 5.30999 14.11 4.89999 13.8C4.32999 13.36 4 12.69 4 11.97C4 10.93 4.69 10.02 5.69 9.75L8.17 9.07V3.75ZM7.25 12.53C7.79 12.38 8.17 11.88 8.17 11.32H8.17999V10.62L6.10001 11.19C5.75001 11.29 5.50999 11.6 5.50999 11.96C5.50999 12.21 5.62001 12.44 5.82001 12.59C6.02001 12.75 6.26999 12.8 6.50999 12.73L7.25 12.53Z" fill="currentColor"/>
<path fill-rule="evenodd" clip-rule="evenodd" d="M16.76 6.22L19.69 9.15C20.21 9.66 20.5 10.37 20.5 11.09V20.75C20.5 22.27 19.27 23.5 17.75 23.5H6.75C6.34 23.5 6 23.16 6 22.75C6 22.34 6.34 22 6.75 22H17.75C18.44 22 19 21.44 19 20.75V11.09C19 10.77 18.86 10.44 18.63 10.21L17.5 9.08V17.75C17.5 19.27 16.27 20.5 14.75 20.5H3.75C3.34 20.5 3 20.16 3 19.75C3 19.34 3.34 19 3.75 19H14.75C15.44 19 16 18.44 16 17.75V8.09C16 7.77 15.86 7.44 15.63 7.21L14.5 6.08V14.75C14.5 16.27 13.27 17.5 11.75 17.5H2.75C1.23 17.5 0 16.27 0 14.75V2.75C0 1.23 1.23 0 2.75 0H9.41C10.14 0 10.83 0.29 11.35 0.81L13.69 3.15C13.6941 3.15414 13.6983 3.16 13.7031 3.16686C13.71 3.17657 13.7183 3.18828 13.73 3.2C13.74 3.21 13.76 3.22 13.76 3.22L16.69 6.15C16.6941 6.15414 16.6983 6.16 16.7031 6.16686C16.71 6.17657 16.7183 6.18828 16.73 6.2C16.74 6.21 16.76 6.22 16.76 6.22ZM11.75 16C12.44 16 13 15.44 13 14.75V5.09C13 4.77 12.86 4.44 12.63 4.21L10.29 1.87C10.06 1.63 9.74 1.5 9.41 1.5H2.75C2.06 1.5 1.5 2.06 1.5 2.75V14.75C1.5 15.44 2.06 16 2.75 16H11.75Z" fill="currentColor"/>
</svg>
