<svg viewBox="0 0 17 24" fill="none" xmlns="http://www.w3.org/2000/svg">
<path fill-rule="evenodd" clip-rule="evenodd" d="M6.66943 23.3715H13.1494L13.1594 23.3915V20.4315C13.2294 18.7915 13.8894 17.1515 14.5593 15.6215C15.5394 13.3615 15.2093 11.8315 14.8494 10.2015L14.7894 9.94152C14.7093 9.61152 14.5194 8.72151 14.7594 8.21151C14.9694 7.77151 15.3393 7.36151 15.7394 6.92151L15.9194 6.72151C16.6494 5.92151 16.9593 4.82152 16.8093 3.62152C16.6594 2.47152 15.8794 0.921511 14.1494 0.311511C12.1094 -0.418489 10.5693 0.331513 10.1494 0.571513C9.79931 0.771514 9.49938 1.03151 9.18932 1.39151C8.82372 1.80522 8.5415 2.53365 8.45824 2.74856L8.44933 2.77151L3.73937 17.6615C3.45934 18.5415 3.54931 19.2115 3.67931 19.6115C4.00707 20.6442 4.9757 20.967 5.75292 21.226L5.7694 21.2315L6.05932 21.3315C6.36523 21.44 6.44714 21.5875 6.49731 21.6779L6.49938 21.6815C6.57934 21.8315 6.64941 22.3415 6.64941 22.7015L6.66943 23.3715ZM11.7794 21.9915H7.97936C7.92931 21.6715 7.85937 21.3115 7.71935 21.0415C7.62939 20.8615 7.33935 20.3215 6.50939 20.0315L6.19933 19.9315C5.5194 19.7115 5.09936 19.5515 4.98937 19.2015C4.91943 19.0015 4.87939 18.6315 5.04931 18.0915L9.74938 3.22151C9.82934 3.01151 10.0493 2.50151 10.2294 2.29151C10.4393 2.05151 10.6294 1.88152 10.8393 1.76152C11.4493 1.41152 12.5094 1.18151 13.6993 1.60151C14.7594 1.97151 15.3494 2.96151 15.4493 3.78151C15.5593 4.57151 15.3594 5.28151 14.9094 5.78151L14.7294 5.97151L14.6792 6.02735C14.2447 6.50962 13.7986 7.00494 13.5194 7.61151C13.1394 8.43151 13.2794 9.43151 13.4493 10.2115L13.5094 10.4715L13.5185 10.5134C13.8441 12.0235 14.1019 13.2184 13.2993 15.0515C12.5793 16.7015 11.8694 18.4715 11.7794 20.3815V21.9915Z" fill="currentColor"/>
<path d="M5.79943 1.08151C6.5194 1.31151 6.92944 2.07151 6.70947 2.80151C6.47948 3.52151 5.71947 3.93151 4.98949 3.71151C4.2694 3.48151 3.85949 2.72151 4.07946 1.99151C4.30944 1.27151 5.06945 0.861512 5.79943 1.08151Z" fill="currentColor"/>
<path d="M5.3695 7.19151C5.58947 6.46151 5.18945 5.69151 4.45947 5.47151C3.72948 5.25151 2.95947 5.65151 2.73949 6.38151C2.5194 7.11151 2.91943 7.88151 3.64941 8.10151C4.37939 8.33151 5.14941 7.92151 5.3695 7.19151Z" fill="currentColor"/>
<path d="M3.1195 9.85151C3.83947 10.0815 4.24938 10.8415 4.02941 11.5715C3.79943 12.2915 3.03942 12.7015 2.30944 12.4815C1.58947 12.2515 1.17944 11.4915 1.39941 10.7615C1.62939 10.0415 2.3894 9.63151 3.1195 9.85151Z" fill="currentColor"/>
<path d="M1.77941 14.2315C2.49938 14.4615 2.90942 15.2215 2.68945 15.9515C2.45947 16.6715 1.69946 17.0815 0.969475 16.8615C0.249382 16.6315 -0.16053 15.8715 0.0594408 15.1415C0.289421 14.4215 1.04943 14.0115 1.77941 14.2315Z" fill="currentColor"/>
</svg>
