<svg width="150" height="23" viewBox="0 0 150 23" fill="none" xmlns="http://www.w3.org/2000/svg">
  <path fill-rule="evenodd" clip-rule="evenodd" d="M30.6839 6.2012C30.3933 6.59311 29.9614 7.19078 29.332 8.0911C28.3846 9.4464 27.2392 10.6898 26.2936 11.4999C24.9199 12.5312 23.2134 13.1428 21.3634 13.1428C19.5135 13.1428 17.8071 12.5318 16.4335 11.5005C15.4876 10.6904 14.3423 9.4464 13.3949 8.0911C12.7655 7.19078 12.3336 6.59322 12.043 6.2012C9.36084 2.44735 4.96604 0 0 0V3.28566C3.90953 3.28566 7.37042 5.23495 9.44926 8.21428C9.62401 8.44885 9.83859 8.76232 10.0826 9.11888C10.5079 9.74012 11.0226 10.4919 11.5719 11.185C12.4003 12.2303 13.1574 12.9876 13.1574 12.9876C15.2447 15.111 18.1506 16.4284 21.3634 16.4284C24.5763 16.4284 27.4814 15.1107 29.5687 12.9873C29.5687 12.9873 30.3268 12.2302 31.155 11.185C31.7043 10.492 32.219 9.74012 32.6443 9.11888C32.8883 8.76244 33.103 8.44885 33.2777 8.21428C35.3565 5.23495 38.8175 3.28566 42.727 3.28566V0C37.7609 0 33.366 2.44735 30.6839 6.2012ZM33.8202 12.9056C34.5806 11.8063 35.5791 10.3624 36.6643 9.24242C38.1664 7.60113 40.3262 6.57121 42.7271 6.57109V9.85687C41.267 9.85687 39.9547 10.4913 39.0526 11.4997C39.0526 11.4997 38.4408 12.1887 37.9203 12.9872C37.3998 13.7859 35.5307 16.4081 34.2825 17.5686C31.001 20.9198 26.4251 22.9995 21.3636 22.9995C16.3019 22.9995 11.7261 20.9198 8.44477 17.5686C7.19657 16.4081 5.32716 13.7859 4.80679 12.9872C4.28643 12.1887 3.67453 11.4997 3.67453 11.4997C2.77233 10.4913 1.46012 9.85687 0 9.85687V6.57109C2.40109 6.57109 4.56079 7.60113 6.06305 9.24242C7.14826 10.3624 8.14709 11.8068 8.90745 12.9061C9.03563 13.0914 9.15739 13.2675 9.27129 13.4301C9.84005 14.2416 10.3392 14.7854 10.3392 14.7854C13.0475 17.8103 16.9832 19.714 21.3637 19.714C25.744 19.714 29.6799 17.8103 32.3881 14.7854C32.3881 14.7854 32.8872 14.2416 33.4559 13.4301C33.5699 13.2676 33.6912 13.0922 33.8193 12.9069L33.8202 12.9056ZM42.015 13.3069C42.0223 13.3032 42.0295 13.2987 42.0369 13.295L42.0372 13.2964C42.2472 13.1991 42.4803 13.1431 42.7271 13.1431V16.4289H39.3687C39.4835 16.2433 39.8034 15.7803 40.1827 15.2707C40.2635 15.162 40.3452 15.0479 40.4289 14.9309C40.8046 14.4057 41.2195 13.8257 41.7651 13.4558C41.8435 13.399 41.9271 13.3494 42.015 13.3069ZM0.712165 13.3062C0.800094 13.3487 0.883653 13.3983 0.962046 13.4549C1.50756 13.8248 1.92189 14.4039 2.29745 14.9288C2.38139 15.0461 2.4634 15.1607 2.54451 15.2697C2.92371 15.7795 3.24367 16.2423 3.35854 16.428H0.000107146V13.1423C0.246857 13.1423 0.480047 13.1981 0.69007 13.2956L0.69032 13.2942C0.694284 13.2961 0.698118 13.2983 0.701939 13.3005C0.705308 13.3025 0.708713 13.3044 0.712165 13.3062ZM5.9487 19.7143H0.000107146V23H9.97541C8.50182 22.0699 7.14967 20.9654 5.9487 19.7143ZM42.7271 23H32.7519C34.2254 22.0699 35.5776 20.9654 36.7785 19.7143H42.7271V23Z" fill="#00DAE8"/>
  <path d="M106.216 14.9419C106.401 16.6885 107.975 19.6827 112.544 19.6827C116.527 19.6827 118.441 17.1252 118.441 14.6301C118.441 12.3844 116.928 10.5443 113.933 9.92034L111.772 9.45251C110.939 9.2966 110.383 8.82889 110.383 8.08031C110.383 7.20688 111.247 6.55185 112.328 6.55185C113.578 6.55185 114.264 7.15571 114.594 7.83229H118.249L118.255 7.83062C118.07 6.17767 116.619 3.40186 112.297 3.40186C109.025 3.40186 106.616 5.67866 106.616 8.4233C106.616 10.5754 107.944 12.3532 110.877 13.0082L112.884 13.476C114.057 13.7255 114.52 14.287 114.52 14.9732C114.52 15.784 113.871 16.5014 112.513 16.5014C111.117 16.5014 110.265 15.8187 109.913 14.9411H106.22L106.216 14.9419Z" fill="currentColor"/>
  <path fill-rule="evenodd" clip-rule="evenodd" d="M131.232 14.9411C130.633 15.6712 129.726 16.1271 128.412 16.1271C126.374 16.1271 124.676 14.6612 124.583 12.6338H135.45C135.45 12.623 135.452 12.5949 135.456 12.5528L135.46 12.4955V12.4936C135.477 12.2652 135.512 11.8012 135.512 11.355C135.512 6.42712 132.704 3.40186 128.011 3.40186C124.12 3.40186 120.539 6.58315 120.539 11.4799C120.539 16.6573 124.213 19.6827 128.381 19.6827C132.058 19.6827 134.45 17.5369 135.26 14.9411H131.232ZM124.676 9.79574C124.769 8.39224 125.942 6.77035 128.073 6.77035C130.419 6.77035 131.407 8.26739 131.468 9.79574H124.676Z" fill="currentColor"/>
  <path d="M137.779 14.9411H141.473C141.824 15.8185 142.676 16.5014 144.073 16.5015C145.431 16.5015 146.079 15.7841 146.079 14.9732C146.079 14.2871 145.617 13.7256 144.443 13.476L142.436 13.0082C139.504 12.3532 138.175 10.5755 138.175 8.4233C138.175 5.67866 140.583 3.40186 143.857 3.40186C148.179 3.40186 149.63 6.17768 149.815 7.83062L149.808 7.83229H146.154C145.824 7.15583 145.138 6.55197 143.887 6.55197C142.807 6.55197 141.942 7.207 141.942 8.08043C141.942 8.82889 142.498 9.29672 143.331 9.45263L145.493 9.92034C148.487 10.5443 150 12.3845 150 14.6301C150 17.1252 148.086 19.6828 144.104 19.6828C139.535 19.6828 137.96 16.6885 137.775 14.942L137.779 14.9411Z" fill="currentColor"/>
  <path d="M103.116 3.40186H99.01V19.6827H103.116V3.40186Z" fill="currentColor"/>
  <path fill-rule="evenodd" clip-rule="evenodd" d="M87.8037 3.40186C83.266 3.40186 79.8386 6.80153 79.8386 11.5422C79.8386 16.2519 83.266 19.6827 87.8037 19.6827C92.3423 19.6827 95.7687 16.2519 95.7687 11.5422C95.7686 6.80153 92.3423 3.40186 87.8037 3.40186ZM87.8037 15.9086C85.7969 15.9086 83.945 14.4118 83.945 11.5422C83.945 8.64169 85.7971 7.1757 87.8037 7.1757C89.8104 7.1757 91.6631 8.64157 91.6631 11.5422C91.6631 14.4429 89.8104 15.9086 87.8037 15.9086Z" fill="currentColor"/>
  <path d="M57.7422 10.2322V19.6611H53.6366V3.86951H55.6855C56.7193 3.86951 57.5571 4.70735 57.5571 5.74085C58.3909 4.24369 60.3359 3.43286 62.0027 3.43286C64.071 3.43286 65.7386 4.33735 66.5106 5.99041C67.7139 4.11896 69.3199 3.43286 71.3266 3.43286C74.1357 3.43286 76.8217 5.14829 76.8217 9.26525V19.6612H72.8394V10.1075C72.8394 8.45442 72.0361 7.20683 70.1529 7.20683C68.393 7.20683 67.3436 8.57915 67.3436 10.2322V19.6612H63.2684V10.1075C63.2684 8.45442 62.4354 7.20683 60.5827 7.20683C58.7924 7.20683 57.7422 8.54797 57.7422 10.2322Z" fill="currentColor"/>
</svg>
