<svg width="41" height="22" viewBox="0 0 41 22" fill="none" xmlns="http://www.w3.org/2000/svg">
  <path fill-rule="evenodd" clip-rule="evenodd" d="M29.4435 5.93162C29.1646 6.30649 28.7503 6.87819 28.1463 7.73929C27.2373 9.0357 26.1381 10.2251 25.2307 11C23.9125 11.9863 22.2751 12.5714 20.4999 12.5714C18.7247 12.5714 17.0873 11.9869 15.7692 11.0005C14.8617 10.2257 13.7625 9.0357 12.8534 7.73929C12.2495 6.87819 11.835 6.3066 11.5562 5.93162C8.98253 2.34094 4.76534 0 5.49109e-05 0V3.14284C3.75154 3.14284 7.07258 5.00735 9.06731 7.85711C9.235 8.08159 9.44096 8.38137 9.67512 8.72236C10.0832 9.31658 10.5771 10.0358 11.1042 10.6988C11.899 11.6986 12.6255 12.4228 12.6255 12.4228C14.6285 14.454 17.4169 15.7142 20.4999 15.7142C23.5828 15.7142 26.3705 14.4538 28.3735 12.4226C28.3735 12.4226 29.1008 11.6985 29.8956 10.6988C30.4227 10.0359 30.9165 9.31679 31.3246 8.72258C31.5587 8.38159 31.7648 8.08159 31.9325 7.85711C33.9273 5.00735 37.2483 3.14284 40.9998 3.14284V0C36.2345 0 32.0174 2.34094 29.4435 5.93162ZM32.453 12.3447C33.1826 11.2931 34.1409 9.91199 35.1821 8.84072C36.6235 7.27076 38.696 6.28561 40.9999 6.28561V9.42838C39.5988 9.42838 38.3396 10.0354 37.4739 10.9999C37.4739 10.9999 36.8868 11.6589 36.3874 12.4227C35.8879 13.1867 34.0943 15.6948 32.8966 16.8049C29.7479 20.0104 25.3569 21.9998 20.4999 21.9998C15.643 21.9998 11.2521 20.0104 8.10339 16.8049C6.90565 15.6949 5.11182 13.1867 4.61249 12.4227C4.11316 11.6589 3.526 10.9999 3.526 10.9999C2.66027 10.0354 1.40109 9.42838 0 9.42838V6.28561C2.30404 6.28561 4.37642 7.27076 5.81792 8.84072C6.85926 9.9121 7.81769 11.2935 8.54735 12.3451C8.67029 12.5224 8.7872 12.6908 8.89655 12.8462C9.44228 13.6225 9.92122 14.1426 9.92122 14.1426C12.52 17.0361 16.2966 18.857 20.5001 18.857C24.7034 18.857 28.48 17.0361 31.0788 14.1426C31.0788 14.1426 31.5577 13.6225 32.1036 12.8462C32.213 12.6905 32.3297 12.5223 32.453 12.3447ZM40.3266 12.7225C40.3302 12.7204 40.3338 12.7185 40.3376 12.7166L40.3379 12.718C40.5394 12.6249 40.7631 12.5714 41 12.5714V15.7142H37.7773C37.8875 15.5366 38.1945 15.0939 38.5584 14.6064C38.6361 14.5023 38.7146 14.3928 38.7951 14.2807C39.1555 13.7784 39.5532 13.2243 40.0768 12.8704C40.152 12.8162 40.2322 12.7686 40.3166 12.7281C40.3199 12.7263 40.3233 12.7244 40.3266 12.7225ZM0.683471 12.728C0.767842 12.7686 0.848024 12.8162 0.923249 12.8704C1.44671 13.2241 1.84428 13.778 2.20467 14.2801C2.2852 14.3924 2.36392 14.502 2.44174 14.6063C2.80561 15.0938 3.11264 15.5365 3.22286 15.7141H0.000197679V12.5713C0.236971 12.5713 0.460736 12.6247 0.66226 12.7178L0.662501 12.7165C0.666307 12.7184 0.669992 12.7205 0.673666 12.7226C0.676912 12.7245 0.680147 12.7263 0.683471 12.728ZM5.70824 18.8571H6.58931e-05V22H9.57213C8.15812 21.1104 6.86058 20.0537 5.70824 18.8571ZM40.9999 22H31.4279C32.8419 21.1104 34.1394 20.0537 35.2917 18.8571H40.9999V22Z" fill="currentColor"/>
</svg>
