<svg width="48" height="30" viewBox="0 0 48 30" fill="none" xmlns="http://www.w3.org/2000/svg">
  <path fill-rule="evenodd" clip-rule="evenodd" d="M32.1816 10.2353C31.9273 10.5783 31.5495 11.1014 30.9988 11.8893C30.1699 13.0755 29.1677 14.1638 28.3403 14.8728V14.8733C27.1384 15.7758 25.6454 16.3106 24.0268 16.3106C22.4081 16.3106 20.9151 15.7758 19.7133 14.8733V14.8728C18.8858 14.1638 17.8836 13.0755 17.0547 11.8893C16.504 11.1014 16.1261 10.5784 15.8719 10.2353C13.5252 6.94987 9.67996 4.80793 5.33496 4.80793V7.6836C8.75557 7.6836 11.7837 9.3896 13.6025 11.9971C13.7554 12.2025 13.9432 12.4768 14.1567 12.7888C14.5288 13.3325 14.9791 13.9906 15.4597 14.5972C16.1844 15.512 16.8469 16.1747 16.8469 16.1747L16.8476 16.1745C18.6739 18.033 21.2157 19.1863 24.0268 19.1863C26.8378 19.1863 29.3796 18.033 31.2059 16.1745L31.2066 16.1747C31.2066 16.1747 31.8691 15.5119 32.5938 14.5972C33.0744 13.9907 33.5246 13.3327 33.8967 12.789L33.8968 12.7889L33.8968 12.7888L33.8969 12.7888C34.1104 12.4768 34.2981 12.2025 34.451 11.9971C36.2699 9.3896 39.298 7.6836 42.7186 7.6836V4.80793C38.3736 4.80793 34.5284 6.94987 32.1816 10.2353ZM34.9256 16.1032C35.5909 15.141 36.4647 13.8773 37.414 12.8971C38.7283 11.4606 40.618 10.5592 42.7187 10.5592V13.4348C41.4412 13.4348 40.293 13.9902 39.5037 14.8727C39.5037 14.8727 38.9684 15.4757 38.513 16.1746C38.0576 16.8736 36.4222 19.1685 35.3301 20.1842H35.33C32.459 23.1172 28.4554 24.9375 24.0268 24.9375C19.5982 24.9375 15.5946 23.1172 12.7236 20.1842H12.7235C11.6314 19.1686 9.99588 16.8736 9.54059 16.1746C9.0853 15.4757 8.54992 14.8727 8.54992 14.8727C7.76055 13.9902 6.61243 13.4348 5.33491 13.4348V10.5592C7.43574 10.5592 9.32534 11.4606 10.6397 12.8971C11.5892 13.8774 12.4631 15.1414 13.1284 16.1036L13.1284 16.1036L13.1284 16.1036L13.1284 16.1036L13.1287 16.104C13.2408 16.2662 13.3471 16.4199 13.4468 16.5621C13.9444 17.2724 14.3811 17.7483 14.3811 17.7483C16.7507 20.3958 20.1942 22.0619 24.0269 22.0619C27.8595 22.0619 31.303 20.3958 33.6726 17.7483C33.6726 17.7483 34.1093 17.2724 34.607 16.5621C34.7068 16.4196 34.8132 16.2657 34.9256 16.1032ZM42.1048 16.4489C42.1081 16.447 42.1114 16.4452 42.1148 16.4435L42.1151 16.4448C42.2988 16.3596 42.5028 16.3106 42.7188 16.3106V19.1863H39.7803C39.8808 19.0238 40.1607 18.6187 40.4925 18.1726C40.5634 18.0774 40.635 17.9772 40.7084 17.8746C41.037 17.415 41.3996 16.908 41.877 16.5842C41.9456 16.5346 42.0187 16.4911 42.0957 16.454C42.0987 16.4524 42.1017 16.4507 42.1047 16.449L42.1048 16.4489ZM5.9581 16.4539C6.03503 16.4911 6.10814 16.5346 6.17673 16.5842C6.65402 16.9078 7.01653 17.4147 7.34513 17.8741L7.34516 17.8741C7.41859 17.9768 7.49034 18.0771 7.56129 18.1725C7.89307 18.6186 8.17302 19.0237 8.27352 19.1862H5.33509V16.3105C5.55098 16.3105 5.75501 16.3594 5.93876 16.4446L5.93898 16.4434C5.94245 16.4451 5.94581 16.4471 5.94916 16.449C5.95212 16.4507 5.95507 16.4524 5.9581 16.4539ZM10.5397 22.062H5.33497V24.9377H14.0628C12.7735 24.1237 11.5904 23.1569 10.5397 22.062ZM42.7187 24.9377H33.9909C35.2802 24.1237 36.4633 23.1569 37.514 22.062H42.7187V24.9377Z" fill="currentColor"/>
</svg>
