<svg width="19" height="18" viewBox="0 0 19 18" fill="none" xmlns="http://www.w3.org/2000/svg">
<path fill-rule="evenodd" clip-rule="evenodd" d="M12 0.68C12 0.269997 12.26 0.0100021 12.6599 0.0100021L12.65 0C13.04 0 13.29 0.260002 13.29 0.669998V6.52C13.59 5.85 14.54 5.33 15.55 5.33C17.64 5.33 18.7 6.94 18.7 8.77C18.7 12 16.0599 13.8 13.77 14.38C13.41 14.47 13.1 14.48 12.79 14.48H12.73C12.28 14.48 12 14.18 12 13.69V0.68ZM13.3 8.8V13.33C15.66 12.82 17.37 11.19 17.37 8.96C17.37 7.71 16.65 6.55 15.3 6.55C14.3099 6.55 13.3 7.4 13.3 8.8Z" fill="currentColor"/>
<path d="M8.80005 17.07H0.72998V17.04C0.280029 17.04 0 16.75 0 16.28V2.3C0 1.83 0.280029 1.54 0.72998 1.54H8.80005C9.21997 1.54 9.51001 1.82 9.51001 2.21C9.51001 2.6 9.21997 2.88 8.80005 2.88H1.45996V8.46H8.40991C8.82996 8.46 9.10999 8.73 9.10999 9.12C9.10999 9.51 8.82996 9.78 8.40991 9.78H1.45996V15.73H8.80005C9.21997 15.73 9.51001 16 9.51001 16.4C9.51001 16.8 9.21997 17.07 8.80005 17.07Z" fill="currentColor"/>
</svg>
