<svg width="25" height="22" viewBox="0 0 25 22" fill="none" xmlns="http://www.w3.org/2000/svg">
<path d="M24.08 9.21333C24.08 7.14333 21.12 5.76333 17.29 5.12333L23.71 1.39333C24.07 1.18333 24.19 0.723333 23.98 0.373333C23.77 0.0133335 23.31 -0.106667 22.95 0.103333L14.82 4.82333C13.9 4.74333 12.97 4.70333 12.04 4.70333C6.05001 4.70333 0 6.25333 0 9.21333C0 9.33333 0.0300085 9.44333 0.0400085 9.55333V16.7433C0.0400085 17.5733 0.550012 18.2533 1.20001 18.7633C1.86001 19.2833 2.77002 19.7233 3.83002 20.0733C5.96002 20.7833 8.87001 21.2133 12.04 21.2133C15.21 21.2133 18.12 20.7833 20.25 20.0733C21.31 19.7233 22.22 19.2833 22.89 18.7633C23.54 18.2533 24.05 17.5733 24.05 16.7433V9.55333C24.07 9.44333 24.09 9.33333 24.09 9.21333H24.08ZM12.04 6.20333C12.17 6.20333 12.3 6.20333 12.43 6.20333L8.37 8.56333C8.01 8.77333 7.89001 9.23333 8.10001 9.58333C8.24001 9.82333 8.49 9.95333 8.75 9.95333C8.88 9.95333 9.01 9.92333 9.13 9.85333L15.18 6.34333C19.79 6.79333 22.59 8.19333 22.59 9.20333C22.59 9.74333 21.78 10.4033 20.33 10.9633V10.6233C20.33 10.2133 19.99 9.87333 19.58 9.87333C19.17 9.87333 18.83 10.2133 18.83 10.6233V11.4433C17.24 11.8633 15.2 12.1633 12.8 12.2133V11.5633C12.8 11.1533 12.46 10.8133 12.05 10.8133C11.64 10.8133 11.3 11.1533 11.3 11.5633V12.2133C8.90002 12.1633 6.86002 11.8633 5.27002 11.4433V10.6233C5.27002 10.2133 4.94002 9.87333 4.52002 9.87333C4.10002 9.87333 3.77002 10.2133 3.77002 10.6233V10.9633C2.31002 10.4033 1.51001 9.75333 1.51001 9.20333C1.51001 7.97333 5.62002 6.19333 12.05 6.19333L12.04 6.20333ZM18.82 19.0233C17.15 19.4633 15.08 19.7433 12.79 19.7933V13.7233C14.92 13.6733 17.01 13.4333 18.82 13.0033V19.0233ZM5.26001 13.0033C7.06001 13.4333 9.16001 13.6733 11.29 13.7233V19.7933C9.00001 19.7433 6.93001 19.4633 5.26001 19.0233V13.0033ZM1.45001 16.7433V11.4733C2.07001 11.9033 2.85001 12.2633 3.76001 12.5733V18.5433C3.04001 18.2633 2.46001 17.9633 2.07001 17.6533C1.58001 17.2633 1.45001 16.9533 1.45001 16.7433ZM22.01 17.6533C21.62 17.9633 21.04 18.2633 20.32 18.5433V12.5733C21.23 12.2633 22.01 11.8933 22.63 11.4733V16.7433C22.63 16.9533 22.5 17.2633 22.01 17.6533Z" fill="currentColor"/>
</svg>
