<svg viewBox="0 0 23 24" fill="none" xmlns="http://www.w3.org/2000/svg">
<path fill-rule="evenodd" clip-rule="evenodd" d="M18.372 1.60175L17.132 1.48175C16.862 1.45175 16.612 1.34175 16.422 1.16175C15.092 -0.0882477 13.122 -0.358248 11.502 0.491752L11.262 0.611753L11.022 0.491752C9.402 -0.348247 7.432 -0.0782477 6.102 1.16175C5.912 1.34175 5.652 1.46175 5.392 1.48175L4.152 1.60175C3.592 1.65175 3.212 2.19175 3.332 2.73175C4.362 7.40175 4.682 12.2418 4.282 17.0018L4.252 17.3118C4.222 17.6818 4.372 18.0318 4.652 18.2718C5.872 19.2718 6.582 20.7818 6.582 22.3618V23.1118H15.922V22.3618C15.922 20.7818 16.632 19.2718 17.852 18.2718C18.132 18.0418 18.282 17.6818 18.252 17.3118L18.222 17.0018C17.812 12.2318 18.142 7.40175 19.172 2.73175C19.292 2.19175 18.912 1.65175 18.352 1.60175H18.372ZM8.052 21.6218C7.862 19.9418 7.052 18.3818 5.772 17.2618V17.1318C6.182 12.4218 5.882 7.66175 4.932 3.03175L5.542 2.97175C6.142 2.91175 6.702 2.66175 7.142 2.25175C8.002 1.44175 9.292 1.26175 10.342 1.81175L10.922 2.12175L11.272 2.30175L11.622 2.12175L12.202 1.81175C13.252 1.26175 14.532 1.44175 15.402 2.25175C15.842 2.66175 16.402 2.92175 17.002 2.97175L17.612 3.03175C16.652 7.65175 16.362 12.4218 16.762 17.1318V17.2618C15.492 18.3818 14.682 19.9418 14.492 21.6218H8.052Z" fill="currentColor"/>
<path d="M1.71196 12.2318C2.47196 12.1918 3.05196 11.5418 3.01196 10.7818C2.97196 10.0218 2.32196 9.44175 1.56196 9.48175C0.80196 9.52175 0.22196 10.1718 0.26196 10.9318C0.30196 11.6918 0.95196 12.2718 1.71196 12.2318Z" fill="currentColor"/>
<path d="M2.75195 5.79175C2.79195 6.55175 2.21195 7.20175 1.45195 7.24175C0.691951 7.28175 0.0419505 6.70175 0.00195051 5.94175C-0.0380495 5.18175 0.54195 4.53175 1.30195 4.49175C2.06195 4.45175 2.71195 5.03175 2.75195 5.79175Z" fill="currentColor"/>
<path d="M1.82197 14.4818C1.06197 14.5218 0.48197 15.1718 0.52197 15.9218C0.56197 16.6818 1.21197 17.2618 1.97197 17.2218C2.73197 17.1818 3.31197 16.5318 3.27197 15.7718C3.23197 15.0118 2.58197 14.4318 1.82197 14.4718V14.4818Z" fill="currentColor"/>
<path d="M19.252 15.5818C19.292 14.8218 19.942 14.2418 20.702 14.2818C21.462 14.3218 22.042 14.9718 22.002 15.7318C21.962 16.4918 21.312 17.0718 20.552 17.0318C19.792 16.9918 19.212 16.3418 19.252 15.5818Z" fill="currentColor"/>
<path d="M21.062 7.24175C21.822 7.28175 22.472 6.70175 22.512 5.94175C22.552 5.18175 21.972 4.53175 21.212 4.49175C20.452 4.45175 19.802 5.03175 19.762 5.79175C19.722 6.55175 20.302 7.20175 21.062 7.24175Z" fill="currentColor"/>
<path d="M19.502 10.6918C19.542 9.93175 20.192 9.35175 20.952 9.39175C21.712 9.43175 22.292 10.0818 22.252 10.8418C22.212 11.6018 21.562 12.1818 20.802 12.1418C20.042 12.1018 19.462 11.4518 19.502 10.6918Z" fill="currentColor"/>
</svg>
