<svg width="19" height="26" viewBox="0 0 19 26" fill="none" xmlns="http://www.w3.org/2000/svg">
<path d="M5.68994 22.69H13.1499C13.4299 22.69 13.6499 22.47 13.6499 22.19C13.6499 21.91 13.4299 21.69 13.1499 21.69H5.68994C5.40991 21.69 5.18994 21.91 5.18994 22.19C5.18994 22.47 5.40991 22.69 5.68994 22.69Z" fill="currentColor"/>
<path fill-rule="evenodd" clip-rule="evenodd" d="M2.75 25.5H16.16C17.6801 25.5 18.91 24.27 18.91 22.75V2.75C18.91 1.23 17.6801 0 16.16 0H2.75C1.22998 0 0 1.23 0 2.75V22.75C0 24.27 1.22998 25.5 2.75 25.5ZM1.5 2.75C1.5 2.06 2.06006 1.5 2.75 1.5H16.16C16.85 1.5 17.41 2.06 17.41 2.75V22.75C17.41 23.44 16.85 24 16.16 24H2.75C2.06006 24 1.5 23.44 1.5 22.75V2.75Z" fill="currentColor"/>
</svg>
