<svg width="22" height="20" viewBox="0 0 22 20" fill="none" xmlns="http://www.w3.org/2000/svg">
<path d="M19.75 0H1.75C0.79 0 0 0.79 0 1.75V12.75C0 13.71 0.79 14.5 1.75 14.5H8V18H4.75C4.34 18 4 18.34 4 18.75C4 19.16 4.34 19.5 4.75 19.5H16.75C17.16 19.5 17.5 19.16 17.5 18.75C17.5 18.34 17.16 18 16.75 18H13.5V14.5H19.75C20.71 14.5 21.5 13.71 21.5 12.75V1.75C21.5 0.79 20.71 0 19.75 0ZM12 18H9.5V14.5H12V18ZM20 12.75C20 12.89 19.89 13 19.75 13H1.75C1.61 13 1.5 12.89 1.5 12.75V1.75C1.5 1.61 1.61 1.5 1.75 1.5H19.75C19.89 1.5 20 1.61 20 1.75V12.75Z" fill="currentColor"/>
</svg>
