<svg viewBox="0 0 16 25" fill="none" xmlns="http://www.w3.org/2000/svg">
<path fill-rule="evenodd" clip-rule="evenodd" d="M2.75 24.39H12.75C14.27 24.39 15.5 23.16 15.5 21.64V3.64C15.5 2.12 14.27 0.889999 12.75 0.889999H2.75C1.22998 0.889999 0 2.12 0 3.64V21.64C0 23.16 1.22998 24.39 2.75 24.39ZM1.5 3.64C1.5 2.95 2.06006 2.39 2.75 2.39H4.94397C4.82373 2.5233 4.75 2.69906 4.75 2.89C4.75 3.3 5.08997 3.64 5.5 3.64H10C10.41 3.64 10.75 3.3 10.75 2.89C10.75 2.69906 10.6763 2.5233 10.556 2.39H12.75C13.4399 2.39 14 2.95 14 3.64V21.64C14 22.33 13.4399 22.89 12.75 22.89H2.75C2.06006 22.89 1.5 22.33 1.5 21.64V3.64Z" fill="currentColor"/>
</svg>
