<svg width="20" height="20" viewBox="0 0 20 20" fill="none" xmlns="http://www.w3.org/2000/svg">
<path fill-rule="evenodd" clip-rule="evenodd" d="M3.92 3.92C5.47 2.37 7.57 1.5 9.75 1.5C11.93 1.5 14.04 2.37 15.58 3.92C17.13 5.47 18 7.57 18 9.75V11H15.75C15.02 11 14.32 11.29 13.81 11.81C13.29 12.33 13 13.03 13 13.75V16.75C13 17.48 13.29 18.18 13.81 18.69C14.32 19.21 15.02 19.5 15.75 19.5H16.75C17.48 19.5 18.18 19.21 18.69 18.69C19.21 18.18 19.5 17.47 19.5 16.75V9.75C19.5 7.16 18.47 4.68 16.64 2.86C14.81 1.03 12.33 0 9.75 0C7.17 0 4.68 1.03 2.86 2.86C1.03 4.69 0 7.17 0 9.75V16.75C0 17.48 0.290003 18.18 0.800003 18.69C1.32 19.21 2.02 19.5 2.75 19.5H3.75C4.48 19.5 5.18 19.21 5.7 18.69C6.21 18.18 6.5 17.47 6.5 16.75V13.75C6.5 13.02 6.21 12.32 5.7 11.81C5.18 11.29 4.48 11 3.75 11H1.5V9.75C1.5 7.56 2.37 5.46 3.92 3.92ZM1.5 12.5V16.75C1.5 17.08 1.63 17.4 1.87 17.63C2.11 17.86 2.42 18 2.75 18H3.75C4.08 18 4.4 17.87 4.63 17.63C4.86 17.39 5 17.08 5 16.75V13.75C5 13.42 4.87 13.1 4.63 12.87C4.39 12.64 4.08 12.5 3.75 12.5H1.5ZM18 12.5H15.75C15.42 12.5 15.1 12.63 14.87 12.87C14.64 13.1 14.5 13.42 14.5 13.75V16.75C14.5 17.08 14.63 17.4 14.87 17.63C15.11 17.86 15.42 18 15.75 18H16.75C17.08 18 17.4 17.87 17.63 17.63C17.86 17.39 18 17.08 18 16.75V12.5Z" fill="currentColor"/>
</svg>
