<svg viewBox="0 0 16 24" fill="none" xmlns="http://www.w3.org/2000/svg">
<path fill-rule="evenodd" clip-rule="evenodd" d="M7.75 0C6.76 0 5.80001 0.399998 5.10001 1.1C4.40001 1.8 4 2.76 4 3.75V11.75C4 12.74 4.40001 13.7 5.10001 14.4C5.80001 15.1 6.76 15.5 7.75 15.5C8.74 15.5 9.69999 15.1 10.4 14.4C11.1 13.7 11.5 12.74 11.5 11.75V3.75C11.5 2.76 11.1 1.8 10.4 1.1C9.69999 0.399998 8.74 0 7.75 0ZM6.16 2.16C6.58 1.74 7.15 1.5 7.75 1.5C8.35 1.5 8.92 1.74 9.34 2.16C9.76 2.58 10 3.15 10 3.75V11.75C10 12.35 9.76 12.92 9.34 13.34C8.92 13.76 8.35 14 7.75 14C7.15 14 6.58 13.76 6.16 13.34C5.74 12.92 5.5 12.35 5.5 11.75V3.75C5.5 3.15 5.74 2.58 6.16 2.16ZM1.5 9.75C1.5 9.34 1.16 9 0.75 9C0.34 9 0 9.34 0 9.75V11.75C0 13.81 0.820004 15.78 2.27 17.23C3.54 18.51 5.22 19.29 7 19.46V22H3.75C3.34 22 3 22.34 3 22.75C3 23.16 3.34 23.5 3.75 23.5H11.75C12.16 23.5 12.5 23.16 12.5 22.75C12.5 22.34 12.16 22 11.75 22H8.5V19.46C10.28 19.29 11.96 18.5 13.23 17.23C14.68 15.78 15.5 13.81 15.5 11.75V9.75C15.5 9.34 15.16 9 14.75 9C14.34 9 14 9.34 14 9.75V11.75C14 13.41 13.34 15 12.17 16.17C11 17.34 9.41 18 7.75 18C6.09 18 4.5 17.34 3.33 16.17C2.16 15 1.5 13.41 1.5 11.75V9.75Z" fill="currentColor"/>
</svg>
