<svg viewBox="0 0 21 22" fill="none" xmlns="http://www.w3.org/2000/svg">
<path d="M20.4051 16.24L12.7451 1.23C12.3551 0.47 11.5951 0 10.7451 0C9.89505 0 9.12505 0.47 8.74505 1.23L5.51504 7.55L5.03503 6.85C5.42503 6.38 5.66503 5.79 5.66503 5.13C5.66503 3.63 4.44505 2.4 2.93505 2.4C2.63505 2.4 2.34504 2.46 2.07504 2.55L1.36505 1.52C1.12505 1.18 0.665037 1.09 0.325037 1.33C-0.0149632 1.57 -0.104966 2.03 0.135034 2.37L0.845026 3.4C0.455026 3.87 0.215051 4.46 0.215051 5.12C0.215051 6.62 1.43503 7.85 2.94503 7.85C3.24503 7.85 3.53505 7.79 3.80505 7.7L4.74505 9.07L1.08505 16.24C1.03505 16.35 1.00503 16.46 1.00503 16.58V18.96C1.00503 20.48 2.23503 21.71 3.75503 21.71H17.755C19.275 21.71 20.505 20.48 20.505 18.96V16.58C20.505 16.46 20.475 16.34 20.425 16.24H20.4051ZM1.69503 5.13C1.69503 4.45 2.24504 3.9 2.92504 3.9C3.60504 3.9 4.15505 4.45 4.15505 5.13C4.15505 5.81 3.60504 6.36 2.92504 6.36C2.24504 6.36 1.69503 5.81 1.69503 5.13ZM10.065 1.92C10.195 1.66 10.445 1.51 10.735 1.51C11.025 1.51 11.2751 1.66 11.4051 1.92L18.445 15.71H11.1251L6.46505 8.96L10.065 1.92ZM9.30505 15.71H3.02505L5.69503 10.48L9.30505 15.71ZM17.735 20.21H3.73504C3.04504 20.21 2.48504 19.65 2.48504 18.96V17.21H18.985V18.96C18.985 19.65 18.425 20.21 17.735 20.21Z" fill="currentColor"/>
</svg>
