<svg width="21" height="15" viewBox="0 0 21 15" fill="none" xmlns="http://www.w3.org/2000/svg">
  <path fill-rule="evenodd" clip-rule="evenodd" d="M18.9631 1.07539C19.2745 1.38683 19.4989 1.77442 19.614 2.19958C20.2764 4.86609 20.1234 9.07745 19.6269 11.8469C19.5118 12.272 19.2874 12.6596 18.976 12.9711C18.6645 13.2825 18.2769 13.5069 17.8518 13.622C16.2953 14.0464 10.031 14.0464 10.031 14.0464C10.031 14.0464 3.76672 14.0464 2.21029 13.622C1.78514 13.5069 1.39754 13.2825 1.08609 12.9711C0.774654 12.6596 0.550236 12.272 0.43519 11.8469C-0.231116 9.19194 -0.0484602 4.978 0.422328 2.21245C0.537372 1.78729 0.761791 1.39969 1.07323 1.08825C1.38467 0.776807 1.77227 0.552387 2.19743 0.437347C3.75386 0.0128599 10.0182 0 10.0182 0C10.0182 0 16.2825 0 17.8389 0.424479C18.264 0.539527 18.6516 0.763948 18.9631 1.07539ZM13.2211 7.02322L8.02439 10.0332V4.01326L13.2211 7.02322Z" fill="currentColor" />
</svg>
