<svg width="16" height="18" viewBox="0 0 16 18" fill="none" xmlns="http://www.w3.org/2000/svg">
  <path d="M14.4514 7.79382L15.147 7.81659V4.53255L14.8688 4.51222C13.9404 4.44435 13.0653 4.05227 12.3967 3.40454C11.728 2.75681 11.3083 1.89466 11.211 0.968822L11.1827 0.700195H8.32138L8.29679 12.1711C8.29679 13.3561 7.24127 14.3214 6.01588 14.3214C5.4374 14.3214 4.88262 14.0916 4.47357 13.6826C4.06453 13.2735 3.83473 12.7187 3.83473 12.1403C3.83473 11.5618 4.06453 11.007 4.47357 10.598C4.88262 10.1889 5.4374 9.95912 6.01588 9.95912C6.07051 9.95912 6.11672 9.96544 6.18161 9.9743L6.18167 9.97431L6.18223 9.97439C6.21064 9.97827 6.24274 9.98266 6.28058 9.9872L6.61633 10.0275V7.01197L6.33515 6.9943L6.27309 6.99009L6.27307 6.99009C6.19552 6.98466 6.10484 6.97831 6.01588 6.97831C4.99505 6.97831 3.99715 7.28102 3.14837 7.84816C2.29958 8.4153 1.63803 9.2214 1.24738 10.1645C0.856729 11.1076 0.754516 12.1454 0.953669 13.1466C1.15282 14.1478 1.6444 15.0675 2.36623 15.7893C3.08806 16.5112 4.00773 17.0027 5.00894 17.2019C6.01015 17.4011 7.04793 17.2988 7.99105 16.9082C8.93417 16.5175 9.74027 15.856 10.3074 15.0072C10.8745 14.1584 11.1773 13.1605 11.1773 12.1397V6.41333C11.4987 6.74306 11.8692 7.02356 12.2773 7.24409C12.9451 7.605 13.6923 7.79392 14.4514 7.79382Z" fill="currentColor" />
</svg>
