<svg width="18" height="17" viewBox="0 0 18 17" fill="none" xmlns="http://www.w3.org/2000/svg">
  <path fill-rule="evenodd" clip-rule="evenodd" d="M1.87127 3.62144C3.05475 3.62144 3.81154 2.81708 3.81154 1.82316C3.78885 0.780934 3.05474 0 1.89394 0C0.733876 0 -0.0228922 0.780934 0.000528658 1.82316C-0.0228922 2.81708 0.733894 3.62144 1.87127 3.62144ZM0.0956794 5.04205V16.6185H3.6937V5.04205H0.0956794ZM6.48193 5.04302C6.52951 6.0611 6.57708 7.29215 6.57708 8.73619H6.57854V16.6202H10.1766V9.94382C10.1766 9.61154 10.2234 9.28072 10.3186 9.04359C10.555 8.38122 11.1463 7.6947 12.141 7.6947C13.443 7.6947 13.9634 8.71204 13.9634 10.2044V16.6202H17.5615V9.75353C17.5615 6.34581 15.7859 4.7832 13.4189 4.7832C11.5013 4.7832 10.3178 5.89496 9.84429 6.62906H9.77328L9.60714 5.04302H6.48193Z" fill="currentColor" />
</svg>
